<svg width="24" height="31" viewBox="0 0 24 31" fill="none" xmlns="http://www.w3.org/2000/svg">
<path d="M12 30.5C18.2137 30.5 23.25 26.75 23.25 20.1875C23.25 17.375 22.3125 12.6875 18.5625 8.9375C19.0312 11.75 16.2188 12.6875 16.2188 12.6875C17.625 8 13.875 1.4375 8.25 0.5C8.91938 4.25 9.1875 8 4.5 11.75C2.15625 13.625 0.75 16.8669 0.75 20.1875C0.75 26.75 5.78625 30.5 12 30.5ZM12 28.625C8.89313 28.625 6.375 26.75 6.375 23.4688C6.375 22.0625 6.84375 19.7188 8.71875 17.8438C8.48438 19.25 10.125 20.1875 10.125 20.1875C9.42188 17.8438 11.0625 14.0938 13.875 13.625C13.5394 15.5 13.4062 17.375 15.75 19.25C16.9219 20.1875 17.625 21.8075 17.625 23.4688C17.625 26.75 15.1069 28.625 12 28.625Z" fill="#E76464"/>
</svg>
