<svg width="48" height="41" viewBox="0 0 48 41" fill="none" xmlns="http://www.w3.org/2000/svg">
<path d="M46.8894 13.3467C46.3474 12.0586 45.447 11.1299 44.2849 10.6621L44.2693 10.6562C43.7403 10.4492 43.1772 10.3432 42.6091 10.3438H42.5466C39.8865 10.3838 37.1707 12.6445 35.7898 15.9697C34.7771 18.4014 34.6609 21.0166 35.4792 22.9658C36.0203 24.2549 36.9226 25.1836 38.0896 25.6514L38.1023 25.6562C38.6313 25.8633 39.1944 25.9693 39.7625 25.9687C42.448 25.9687 45.1921 23.708 46.5984 20.3389C47.5984 17.9102 47.7087 15.2969 46.8894 13.3467ZM36.2605 27.6885C34.7263 26.7666 33.2761 25.8945 32.3289 24.3281C29.7156 19.9922 28.1375 17.375 23.9998 17.375C19.8621 17.375 18.28 19.9922 15.6609 24.3281C14.7117 25.8965 13.2585 26.7695 11.7195 27.6953C9.95484 28.7559 8.13159 29.8516 7.34448 32.0078C7.03842 32.7851 6.88427 33.6139 6.89038 34.4492C6.89038 37.96 9.62476 40.8164 12.9841 40.8164C14.7175 40.8164 16.5623 40.2158 18.5144 39.5801C20.3914 38.9688 22.3318 38.3369 24.0095 38.3369C25.6873 38.3369 27.6228 38.9688 29.4929 39.5801C31.4412 40.2119 33.2771 40.8125 35.0154 40.8125C38.3699 40.8125 41.0994 37.9561 41.0994 34.4453C41.1021 33.6093 40.9447 32.7806 40.6355 32.0039C39.8484 29.8457 38.0242 28.749 36.2605 27.6885ZM13.6482 13.9424C14.8103 15.4004 16.2849 16.2031 17.8005 16.2031C18.0074 16.2031 18.2141 16.1877 18.4187 16.1572C21.5798 15.6924 23.5496 11.835 22.9031 7.36816C22.6326 5.49023 21.9099 3.74121 20.8748 2.44434C19.7146 0.989258 18.238 0.1875 16.7234 0.1875C16.5165 0.18755 16.3099 0.202891 16.1052 0.233399C12.9441 0.698242 10.9744 4.55566 11.6209 9.02246C11.8904 10.8975 12.613 12.6445 13.6482 13.9424ZM29.5818 16.1572C29.7864 16.1877 29.993 16.2031 30.2 16.2031C31.7166 16.2031 33.1902 15.4004 34.3523 13.9424C35.3865 12.6445 36.1052 10.8975 36.3787 9.02051C37.0252 4.55566 35.0554 0.698242 31.8943 0.231445C31.6896 0.200938 31.483 0.185596 31.2761 0.185547C29.7615 0.1875 28.2849 0.989258 27.1248 2.44434C26.0896 3.74121 25.3669 5.49024 25.0974 7.37012C24.4509 11.835 26.4207 15.6924 29.5818 16.1572ZM9.89722 25.6562L9.91089 25.6514C11.0759 25.1836 11.9773 24.2559 12.5173 22.9678C13.3357 21.0146 13.2205 18.4023 12.2097 15.9707C10.8103 12.6055 8.06714 10.3438 5.38452 10.3438C4.81644 10.3429 4.25327 10.4489 3.72437 10.6562L3.7107 10.6611C2.54859 11.125 1.64722 12.0566 1.10718 13.3447C0.28882 15.2979 0.404055 17.9102 1.4148 20.3418C2.81421 23.707 5.55737 25.9687 8.23999 25.9687C8.80709 25.9692 9.36923 25.8632 9.89722 25.6562Z" fill="#F6B8A9"/>
</svg>
