<svg width="41" height="40" viewBox="0 0 41 40" fill="none" xmlns="http://www.w3.org/2000/svg">
<path fill-rule="evenodd" clip-rule="evenodd" d="M20.4999 2.08301C18.4003 2.08301 16.3867 2.91708 14.902 4.40175C13.4173 5.88641 12.5833 7.90004 12.5833 9.99967C12.5833 12.0993 13.4173 14.1129 14.902 15.5976C16.3867 17.0823 18.4003 17.9163 20.4999 17.9163C22.5996 17.9163 24.6132 17.0823 26.0979 15.5976C27.5825 14.1129 28.4166 12.0993 28.4166 9.99967C28.4166 7.90004 27.5825 5.88641 26.0979 4.40175C24.6132 2.91708 22.5996 2.08301 20.4999 2.08301ZM15.0833 9.99967C15.0833 8.56309 15.6539 7.18533 16.6698 6.16951C17.6856 5.15369 19.0633 4.58301 20.4999 4.58301C21.9365 4.58301 23.3143 5.15369 24.3301 6.16951C25.3459 7.18533 25.9166 8.56309 25.9166 9.99967C25.9166 11.4363 25.3459 12.814 24.3301 13.8298C23.3143 14.8457 21.9365 15.4163 20.4999 15.4163C19.0633 15.4163 17.6856 14.8457 16.6698 13.8298C15.6539 12.814 15.0833 11.4363 15.0833 9.99967ZM20.4999 20.4163C16.6449 20.4163 13.0916 21.293 10.4599 22.773C7.8666 24.233 5.9166 26.443 5.9166 29.1663V29.3363C5.91493 31.273 5.91326 33.703 8.04493 35.4397C9.09326 36.293 10.5616 36.9013 12.5449 37.3013C14.5316 37.7047 17.1233 37.9163 20.4999 37.9163C23.8766 37.9163 26.4666 37.7047 28.4566 37.3013C30.4399 36.9013 31.9066 36.293 32.9566 35.4397C35.0883 33.703 35.0849 31.273 35.0833 29.3363V29.1663C35.0833 26.443 33.1333 24.233 30.5416 22.773C27.9083 21.293 24.3566 20.4163 20.4999 20.4163ZM8.4166 29.1663C8.4166 27.748 9.45326 26.208 11.6849 24.953C13.8783 23.7197 16.9916 22.9163 20.5016 22.9163C24.0083 22.9163 27.1216 23.7197 29.3149 24.953C31.5483 26.208 32.5833 27.748 32.5833 29.1663C32.5833 31.3463 32.5166 32.573 31.3766 33.4997C30.7599 34.003 29.7266 34.4947 27.9599 34.8513C26.1983 35.208 23.7899 35.4163 20.4999 35.4163C17.2099 35.4163 14.7999 35.208 13.0399 34.8513C11.2733 34.4947 10.2399 34.003 9.62326 33.5013C8.48326 32.573 8.4166 31.3463 8.4166 29.1663Z" fill="#F6B8A9"/>
</svg>
